<?xml version="1.0" encoding="UTF-8" standalone="no"?>
<!-- Created with Inkscape (http://www.inkscape.org/) -->

<svg
   xmlns:dc="http://purl.org/dc/elements/1.1/"
   xmlns:cc="http://creativecommons.org/ns#"
   xmlns:rdf="http://www.w3.org/1999/02/22-rdf-syntax-ns#"
   xmlns:svg="http://www.w3.org/2000/svg"
   xmlns="http://www.w3.org/2000/svg"
   xmlns:sodipodi="http://sodipodi.sourceforge.net/DTD/sodipodi-0.dtd"
   xmlns:inkscape="http://www.inkscape.org/namespaces/inkscape"
   id="svg5816"
   version="1.1"
   inkscape:version="0.91 r13725"
   width="3375"
   height="3375"
   viewBox="0 0 3375 3375"
   sodipodi:docname="Fotofreunde Logo.svg">
  <metadata
     id="metadata5822">
    <rdf:RDF>
      <cc:Work
         rdf:about="">
        <dc:format>image/svg+xml</dc:format>
        <dc:type
           rdf:resource="http://purl.org/dc/dcmitype/StillImage" />
        <dc:title></dc:title>
      </cc:Work>
    </rdf:RDF>
  </metadata>
  <defs
     id="defs5820" />
  <sodipodi:namedview
     pagecolor="#ffffff"
     bordercolor="#666666"
     borderopacity="1"
     objecttolerance="10"
     gridtolerance="10"
     guidetolerance="10"
     inkscape:pageopacity="0"
     inkscape:pageshadow="2"
     inkscape:window-width="1542"
     inkscape:window-height="927"
     id="namedview5818"
     showgrid="false"
     inkscape:zoom="0.069925926"
     inkscape:cx="-2272.4302"
     inkscape:cy="1157.8829"
     inkscape:window-x="179"
     inkscape:window-y="136"
     inkscape:window-maximized="0"
     inkscape:current-layer="svg5816" />
  <path
     style="fill:#000000"
     d="m -2966.7366,2966.0923 c -57.6075,-1.3815 -69.0581,-1.7597 -69.7431,-2.3029 -0.9676,-0.7674 -129.11,-108.2155 -147.7584,-123.8963 l -12.825,-10.7841 -0.1152,36.3027 -0.1151,36.3027 -44.995,0 -44.995,0 -0.1148,-40.9461 -0.1149,-40.9462 -25.875,21.7174 c -113.7569,95.4779 -140.725,118.1039 -141.6213,118.8193 -0.9623,0.768 -5.5012,0.925 -72.4652,2.5065 -39.2912,0.928 -71.482,1.6633 -71.5351,1.634 -0.053,-0.029 58.0562,-48.8459 129.132,-108.4815 71.0758,-59.6356 141.2349,-118.5102 155.9091,-130.8324 l 26.6805,-22.4039 0,-13.0336 0,-13.0335 -157.5,0 -157.5,0 0,-90 0,-90 -45,0 -45,0 0,-224.775 0,-224.775 180,0 180,0 0,224.775 0,224.775 -90,0 -90,0 0,45.225 0,45.225 157.5,0 157.5,0 0,62.4746 0,62.4746 129.477,108.6379 c 71.2123,59.7508 139.7079,117.219 152.2125,127.707 12.5045,10.488 22.8199,19.1449 22.923,19.2375 0.1031,0.093 -1.0106,0.1416 -2.475,0.1089 -1.4644,-0.033 -33.6781,-0.8034 -71.586,-1.7126 z m 397.8735,-378.4922 c -184.635,-11.8325 -335.7506,-21.5298 -335.8125,-21.5497 -0.062,-0.02 -0.1125,-132.3573 -0.1125,-294.0834 l 0,-294.0475 1.9125,-0.2443 c 1.0519,-0.1344 151.56,-9.7696 334.4625,-21.4116 182.9025,-11.642 333.9169,-21.2906 335.5875,-21.4413 l 3.0375,-0.2742 0,337.3332 0,337.3331 -1.6875,-0.05 c -0.9281,-0.027 -152.7525,-9.7314 -337.3875,-21.5639 z m -1431.225,18.8787 c -16.6267,-1.6592 -32.8387,-11.4223 -42.0129,-25.3007 -6.0022,-9.0799 -8.8637,-17.5325 -9.737,-28.7621 -0.2635,-3.3887 -0.4337,-79.9817 -0.4399,-197.9983 -0.01,-191.2913 -0.016,-192.4745 -0.9003,-192.948 -2.1279,-1.1388 -10.5633,-8.2409 -15.4724,-13.0268 -20.1342,-19.6287 -29.6095,-41.6655 -28.1055,-65.3649 1.6273,-25.641 18.3563,-51.0216 46.3151,-70.2674 32.7835,-22.5669 79.268,-36.0309 127.3029,-36.8726 l 5.625,-0.099 0.225,-22.7246 0.225,-22.725 23.112,-53.775 c 12.7116,-29.5762 23.2496,-53.9247 23.4177,-54.1077 0.4225,-0.4598 16.3707,2.8378 24.5703,5.0804 34.3614,9.3979 62.5982,24.7658 81.9251,44.5881 16.5242,16.9479 24.8419,34.1128 26.295,54.2642 0.29,4.0232 0.4484,124.3425 0.4509,342.6875 l 0,336.4875 -64.6875,0.027 c -45.0054,0.019 -65.3721,0.1764 -66.9375,0.5184 -2.758,0.6026 -125.3458,0.9009 -131.175,0.3191 z m 937.8,-334.5394 0,-269.775 56.25,0 56.25,0 0,269.775 0,269.775 -56.25,0 -56.25,0 0,-269.775 z m -225,0 0,-247.275 90,0 90,0 0,247.275 0,247.275 -90,0 -90,0 0,-247.275 z m -1047.9377,-460.6876 -31.6113,-31.6137 318.0377,-318.0374 318.0376,-318.0374 31.6113,31.6137 31.6113,31.6137 -318.0377,318.0374 -318.0375,318.0374 -31.6114,-31.6137 z m 1930.9497,-342.9003 -289.9117,-289.9117 -128.1384,128.1377 -128.1384,128.1378 -31.6144,-31.6168 -31.6145,-31.6168 158.9238,-158.9899 158.9238,-158.9899 3.512,3.4914 c 3.3206,3.3011 3.5566,3.4508 4.3333,2.748 0.7801,-0.706 16.7806,15.216 318.8424,317.278 l 318.0212,318.0214 -31.6137,31.6113 -31.6136,31.6113 -289.9118,-289.9118 z m -1087.7499,-86.7794 c -130.7972,-130.8645 -237.8692,-238.104 -237.9379,-238.31 -0.069,-0.206 14.0506,-14.5488 31.3761,-31.873 l 31.5009,-31.4984 238.3863,238.3862 238.3862,238.3863 -31.4981,31.5006 c -17.324,17.3253 -31.7012,31.4653 -31.9494,31.4222 -0.2482,-0.043 -107.467,-107.1494 -238.2641,-238.0139 z m 149.9483,-113.4723 -31.6131,-31.6154 158.9625,-158.9569 158.9625,-158.95688 8.2039,8.19486 8.2038,8.19486 1.5973,-1.54809 1.5971,-1.54809 79.3,79.29994 79.3001,79.3001 -31.6124,31.6123 -31.6123,31.6123 -55.9121,-55.9122 -55.9122,-55.9121 -128.926,128.9254 -128.926,128.9254 -31.6131,-31.6155 z"
     id="path6366"
     inkscape:connector-curvature="0" />
</svg>
